{
    "asset": { "version": "2.0", "generator": "THREE.GLTFExporter" },
    "scenes": [{ "name": "AuxScene", "nodes": [1] }],
    "scene": 0,
    "nodes": [{ "mesh": 0 }, { "children": [0] }],
    "bufferViews": [
        {
            "buffer": 0,
            "byteOffset": 0,
            "byteLength": 432,
            "target": 34962,
            "byteStride": 12
        },
        {
            "buffer": 0,
            "byteOffset": 432,
            "byteLength": 432,
            "target": 34962,
            "byteStride": 12
        },
        {
            "buffer": 0,
            "byteOffset": 864,
            "byteLength": 288,
            "target": 34962,
            "byteStride": 8
        }
    ],
    "buffers": [
        {
            "byteLength": 1152,
            "uri": "data:application/octet-stream;base64,"
        }
    ],
    "accessors": [
        {
            "bufferView": 0,
            "componentType": 5126,
            "count": 36,
            "max": [60, 60, 60],
            "min": [-60, -60, -60],
            "type": "VEC3"
        },
        {
            "bufferView": 1,
            "componentType": 5126,
            "count": 36,
            "max": [0.5773491859436035, 0.5773491859436035, 0.5773491859436035],
            "min": [
                -0.5773491859436035, -0.5773491859436035, -0.5773491859436035
            ],
            "type": "VEC3"
        },
        {
            "bufferView": 2,
            "componentType": 5126,
            "count": 36,
            "max": [0.8749961853027344, 1],
            "min": [0.12500381469726562, 0],
            "type": "VEC2"
        }
    ],
    "materials": [
        {
            "pbrMetallicRoughness": {
                "baseColorFactor": [
                    0.6038273388475408, 0.6038273388475408, 0.6038273388475408,
                    1
                ],
                "metallicFactor": 0.5,
                "roughnessFactor": 0.5
            },
            "doubleSided": true,
            "name": "mat0"
        }
    ],
    "meshes": [
        {
            "primitives": [
                {
                    "mode": 4,
                    "attributes": {
                        "POSITION": 0,
                        "NORMAL": 1,
                        "TEXCOORD_0": 2
                    },
                    "material": 0
                }
            ]
        }
    ]
}
