{
	"asset":{
		"generator":"Khronos glTF Blender I/O v4.0.44",
		"version":"2.0"
	},
	"scene":0,
	"scenes":[
		{
			"name":"Scene",
			"nodes":[
				0,
				1
			]
		}
	],
	"nodes":[
		{
			"name":"GOOGLE_SAT_WM",
			"scale":[
				8560.947265625,
				1,
				8560.947265625
			],
			"translation":[
				-288.01434326171875,
				0,
				-254.5912322998047
			]
		},
		{
			"mesh":0,
			"name":"EXPORT_GOOGLE_SAT_WM"
		}
	],
	"materials":[
		{
			"doubleSided":true,
			"name":"rastMat",
			"pbrMetallicRoughness":{
				"baseColorTexture":{
					"index":0
				},
				"metallicFactor":0,
				"roughnessFactor":0.5
			}
		}
	],
	"meshes":[
		{
			"name":"EXPORT_GOOGLE_SAT_WM",
			"primitives":[
				{
					"attributes":{
						"POSITION":0,
						"NORMAL":1,
						"TEXCOORD_0":2,
						"TEXCOORD_1":3
					},
					"indices":4,
					"material":0
				}
			]
		}
	],
	"textures":[
		{
			"sampler":0,
			"source":0
		}
	],
	"images":[
		{
			"mimeType":"image/png",
			"name":"EXPORT_GOOGLE_SAT_WM",
			"uri":"EXPORT_GOOGLE_SAT_WM.png"
		}
	],
	"accessors":[
		{
			"bufferView":0,
			"componentType":5126,
			"count":4225,
			"max":[
				3992.4599609375,
				2144.4541015625,
				2802.890380859375
			],
			"min":[
				-4568.48876953125,
				723.1064453125,
				-3312.07275390625
			],
			"type":"VEC3"
		},
		{
			"bufferView":1,
			"componentType":5126,
			"count":4225,
			"type":"VEC3"
		},
		{
			"bufferView":2,
			"componentType":5126,
			"count":4225,
			"type":"VEC2"
		},
		{
			"bufferView":3,
			"componentType":5126,
			"count":4225,
			"type":"VEC2"
		},
		{
			"bufferView":4,
			"componentType":5123,
			"count":24576,
			"type":"SCALAR"
		}
	],
	"bufferViews":[
		{
			"buffer":0,
			"byteLength":50700,
			"byteOffset":0,
			"target":34962
		},
		{
			"buffer":0,
			"byteLength":50700,
			"byteOffset":50700,
			"target":34962
		},
		{
			"buffer":0,
			"byteLength":33800,
			"byteOffset":101400,
			"target":34962
		},
		{
			"buffer":0,
			"byteLength":33800,
			"byteOffset":135200,
			"target":34962
		},
		{
			"buffer":0,
			"byteLength":49152,
			"byteOffset":169000,
			"target":34963
		}
	],
	"samplers":[
		{
			"magFilter":9729,
			"minFilter":9987,
			"wrapS":33071,
			"wrapT":33071
		}
	],
	"buffers":[
		{
			"byteLength":218152,
			"uri":"testGIS3.bin"
		}
	]
}
